<?xml version="1.0" encoding="utf-8"?>
<!-- Generator: Adobe Illustrator 22.1.0, SVG Export Plug-In . SVG Version: 6.00 Build 0)  -->
<svg version="1.1" id="Layer_1" xmlns="http://www.w3.org/2000/svg" xmlns:xlink="http://www.w3.org/1999/xlink" x="0px" y="0px"
	 viewBox="0 0 150 128" style="enable-background:new 0 0 150 128;" xml:space="preserve">
<style type="text/css">
	.st0{fill:#F7A80D;}
</style>
<path class="st0" d="M50.1,77.5l-11.4,4.9l10.6,4.5l12.2-4.5C61.5,82.4,50.1,77.5,50.1,77.5z M33,83.6l-0.4,22l16.7,7.3V90.1
	C49.2,90.1,33,83.6,33,83.6z M67.2,83.6l-15.1,5.7v21.6l15.1-6.1C67.2,104.8,67.2,83.6,67.2,83.6z M85.2,15l-11.5,4.9l10.6,4.5
	l12.2-4.5L85.2,15z M69.3,21.5v22l14.2,4.1l0.5-20C84,27.7,69.3,21.5,69.3,21.5z M101.1,22.8l-13.5,5.7v21.7l13.5-6.1
	C101.1,44,101.1,22.8,101.1,22.8z M31.3,46l-11.4,4.9l10.6,4.5l12.2-4.5C42.7,50.9,31.3,46,31.3,46z M14.2,52.2l-0.4,22l16.7,7.3
	V58.7L14.2,52.2z M48.4,52.2l-15.1,5.7v21.6l15.1-6.1C48.4,73.4,48.4,52.2,48.4,52.2z M68,45.2l-11.4,4.9l10.6,4.5l12.2-4.5
	C79.4,50.1,68,45.2,68,45.2z M50.9,51.4l-0.4,22l16.7,7.3V57.9L50.9,51.4z M85.2,51.4l-15.1,5.7v21.6l15.1-6.1V51.4z M121.1,15
	l-11.4,4.9l10.6,4.5l12.2-4.5C132.5,19.9,121.1,15,121.1,15z M103.9,21.2l-0.4,22l16.7,7.3V27.7C120.2,27.7,103.9,21.2,103.9,21.2z
	 M138.2,21.2l-15.1,5.7v21.6l15.1-6.1C138.2,42.3,138.2,21.2,138.2,21.2z"/>
</svg>
