<?xml version="1.0" encoding="utf-8"?>
<!-- Generator: Adobe Illustrator 22.1.0, SVG Export Plug-In . SVG Version: 6.00 Build 0)  -->
<svg version="1.1" id="Layer_1" xmlns="http://www.w3.org/2000/svg" xmlns:xlink="http://www.w3.org/1999/xlink" x="0px" y="0px"
	 viewBox="0 0 140 140" style="enable-background:new 0 0 140 140;" xml:space="preserve">
<style type="text/css">
	.st0{fill:#B3B3B3;}
	.st1{fill:#A6120D;}
	.st2{fill:#DD1B16;}
	.st3{fill:#F2F2F2;}
</style>
<path class="st0" d="M69.8,7L10.6,27.9l9.4,77.6l50,27.5l50.2-27.8l9.4-77.6L69.8,7z"/>
<path class="st1" d="M123.5,32L69.7,13.6v112.8l45.1-25L123.5,32z"/>
<path class="st2" d="M17.2,32.3l8,69.4l44.4,24.7V13.6L17.2,32.3z"/>
<path class="st3" d="M84.5,73.7l-14.8,6.9H54L46.7,99L33,99.2l36.6-81.5C69.7,17.7,84.5,73.7,84.5,73.7z M83.1,70.2L69.8,43.9
	L58.9,69.7h10.8L83.1,70.2z"/>
<path class="st0" d="M69.7,17.7l0.1,26.1l12.4,25.9H69.7l0,10.8l17.2,0l8,18.6l13.1,0.2L69.7,17.7z"/>
</svg>
