<?xml version="1.0" encoding="utf-8"?>
<!-- Generator: Adobe Illustrator 22.1.0, SVG Export Plug-In . SVG Version: 6.00 Build 0)  -->
<svg version="1.1" id="Layer_1" xmlns="http://www.w3.org/2000/svg" xmlns:xlink="http://www.w3.org/1999/xlink" x="0px" y="0px"
	 viewBox="0 0 140 153" style="enable-background:new 0 0 140 153;" xml:space="preserve">
<style type="text/css">
	.st0{fill:#1572B6;}
	.st1{fill:#33A9DC;}
	.st2{fill:#FFFFFF;}
	.st3{fill:#EBEBEB;}
</style>
<path class="st0" d="M24.8,132.1L14.8,19.4h110.5l-10.1,112.8l-45.2,12.5C69.9,144.6,24.8,132.1,24.8,132.1z"/>
<path class="st1" d="M70,135.1l36.6-10.1l8.6-96.4H70C70,28.6,70,135.1,70,135.1z"/>
<path class="st2" d="M70,69.4h18.3l1.3-14.2H70V41.4h34.7l-0.3,3.7L101,83.3H70C70,83.3,70,69.4,70,69.4z"/>
<path class="st3" d="M70.1,105.3L70.1,105.3l-15.5-4.1l-1-11H39.8l1.9,21.7l28.3,7.9l0.1,0C70.1,119.7,70.1,105.3,70.1,105.3z"/>
<path class="st2" d="M87.1,82.7l-1.7,18.5L70,105.4v14.4l28.4-7.9l0.2-2.3l2.4-26.9C101,82.7,87.1,82.7,87.1,82.7z"/>
<path class="st3" d="M70,41.4v13.8H36.6l-0.3-3.1l-0.6-7l-0.3-3.7C35.4,41.4,70,41.4,70,41.4z M70,69.4v13.8H54.8l-0.3-3.1l-0.6-7
	l-0.3-3.7H70z"/>
</svg>
