<?xml version="1.0" encoding="utf-8"?>
<!-- Generator: Adobe Illustrator 22.1.0, SVG Export Plug-In . SVG Version: 6.00 Build 0)  -->
<svg version="1.1" id="Layer_1" xmlns="http://www.w3.org/2000/svg" xmlns:xlink="http://www.w3.org/1999/xlink" x="0px" y="0px"
	 viewBox="0 0 167 140" style="enable-background:new 0 0 167 140;" xml:space="preserve">
<style type="text/css">
	.st0{fill:url(#SVGID_1_);}
	.st1{fill:url(#SVGID_2_);}
	.st2{fill:url(#SVGID_3_);}
	.st3{fill:url(#SVGID_4_);}
	.st4{fill:url(#SVGID_5_);}
	.st5{fill:url(#SVGID_6_);}
</style>
<linearGradient id="SVGID_1_" gradientUnits="userSpaceOnUse" x1="-416.0876" y1="94.221" x2="-415.1767" y2="95.192" gradientTransform="matrix(82.4907 0 0 81.4303 34399.3867 -7652.623)">
	<stop  offset="0" style="stop-color:#F9A03C"/>
	<stop  offset="1" style="stop-color:#F7974E"/>
</linearGradient>
<path class="st0" d="M149.3,96.6c0.1-0.5,0.1-1.1,0.1-1.6c0-0.7-39.4-38-39.4-38h-0.9C109.2,56.9,149.1,99,149.3,96.6z"/>
<linearGradient id="SVGID_2_" gradientUnits="userSpaceOnUse" x1="-411.2641" y1="101.5762" x2="-409.5211" y2="103.2752" gradientTransform="matrix(40.2105 0 0 40.4122 16551.0918 -4070.4978)">
	<stop  offset="0" style="stop-color:#F9A03C"/>
	<stop  offset="1" style="stop-color:#F7974E"/>
</linearGradient>
<path class="st1" d="M65.3,83.6c-0.1,0.2-0.2,0.5-0.3,0.7c-1.3,2.6,17.6,21,19.1,18.8c0.1-0.1,0.1-0.2,0.2-0.3
	c0.1-0.1,0.2-0.2,0.2-0.3C85.7,100.6,65.8,82.4,65.3,83.6L65.3,83.6z"/>
<linearGradient id="SVGID_3_" gradientUnits="userSpaceOnUse" x1="-411.9632" y1="101.0363" x2="-410.4132" y2="102.8133" gradientTransform="matrix(41.0403 0 0 39.9333 16953.2852 -3976.1685)">
	<stop  offset="0" style="stop-color:#F9A03C"/>
	<stop  offset="1" style="stop-color:#F7974E"/>
</linearGradient>
<path class="st2" d="M91.9,109.5c-0.1,0.1-0.4,0.8-0.8,1.1c-0.1,0.1,18.4,18.4,18.4,18.4h1.7C111.2,129,93.8,110.3,91.9,109.5
	L91.9,109.5z"/>
<linearGradient id="SVGID_4_" gradientUnits="userSpaceOnUse" x1="-418.201" y1="89.1047" x2="-417.853" y2="89.5637" gradientTransform="matrix(255.8347 0 0 242.016 107030.5703 -21557.373)">
	<stop  offset="0" style="stop-color:#F26D58"/>
	<stop  offset="1" style="stop-color:#F9A03C"/>
</linearGradient>
<path class="st3" d="M149.5,94.6c-0.9,19.1-16.7,34.4-36,34.4h-2.6l-19.3-19c1.6-2.2,3.1-4.6,4.4-7h17.5c5.6,0,10.1-4.5,10.1-10.1
	c0-5.6-4.5-10.1-10.1-10.1h-10.4c0.8-4.3,1.2-8.6,1.2-12.9c0-4.5-0.4-8.9-1.3-13.1h6.4l39.9,39.3C149.4,95.7,149.5,95.1,149.5,94.6z
	 M35,10.8H24.5v26H35c18.3,0,33.2,14.9,33.2,33.2c0,5-1.1,9.7-3.1,14l19.1,18.9c6.5-9.7,10-21.1,10-32.8
	C94.2,37.3,67.6,10.8,35,10.8L35,10.8z"/>
<linearGradient id="SVGID_5_" gradientUnits="userSpaceOnUse" x1="-417.4626" y1="90.3404" x2="-416.9526" y2="90.6754" gradientTransform="matrix(160.7307 0 0 174.8133 67182.0703 -15777.9248)">
	<stop  offset="0" style="stop-color:#B84E51"/>
	<stop  offset="1" style="stop-color:#F68E48"/>
</linearGradient>
<path class="st4" d="M113.5,10.8H71c10.4,6.4,19,15.3,24.8,26h17.7c5.6,0,10.1,4.5,10.1,10.1c0,5.5-4.5,10.1-10.1,10.1h-4l39.9,39.3
	c0.1-1.1,0.1-2.2,0.2-3.2c0-8.8-3.1-16.8-8.4-23.1c5.2-6.3,8.4-14.3,8.4-23.1C149.5,27,133.4,10.8,113.5,10.8L113.5,10.8z"/>
<linearGradient id="SVGID_6_" gradientUnits="userSpaceOnUse" x1="-417.256" y1="93.4364" x2="-417.232" y2="94.0414" gradientTransform="matrix(176.7653 0 0 92.6293 73821.4375 -8560.3262)">
	<stop  offset="0" style="stop-color:#F9A03C"/>
	<stop  offset="1" style="stop-color:#F7974E"/>
</linearGradient>
<path class="st5" d="M110.8,129H71.3c8-4.9,14.8-11.4,20.2-19L110.8,129z M84.2,102.8L65.1,84c-5.3,11.4-16.8,19.3-30.1,19.3H24.5
	v26H35C55.5,129.2,73.6,118.7,84.2,102.8L84.2,102.8z"/>
</svg>
