<?xml version="1.0" encoding="utf-8"?>
<!-- Generator: Adobe Illustrator 22.1.0, SVG Export Plug-In . SVG Version: 6.00 Build 0)  -->
<svg version="1.1" id="Express" xmlns="http://www.w3.org/2000/svg" xmlns:xlink="http://www.w3.org/1999/xlink" x="0px" y="0px"
	 viewBox="0 0 142.4 78" style="enable-background:new 0 0 142.4 78;" xml:space="preserve">
<title>Artboard 12</title>
<g id="original-wordmark">
	<path d="M48.4,59.8V32.7h1.5V37c0.2-0.2,0.3-0.4,0.5-0.6c1.2-2.5,3.8-4.2,6.6-4.1c3.3-0.1,6.1,1.1,7.7,4.1
		c2.1,3.8,2.2,8.3,0.3,12.1c-1.5,3.3-5.2,5-9.1,4.4c-2.5-0.2-4.7-1.7-5.9-3.9v10.8H48.4z M49.8,42.3c0.1,1.3,0.2,2.3,0.3,3.2
		c0.6,3.6,2.7,5.8,6.1,6.2c3.3,0.5,6.4-1.3,7.6-4.4c1.3-3.1,1.2-6.6-0.3-9.7c-1.2-2.8-4.1-4.4-7.1-3.9c-2.8,0.2-5.2,2.2-5.9,4.9
		C50.2,39.8,50,41,49.8,42.3z"/>
	<path d="M96.2,46c-0.5,3.9-3.8,6.9-7.7,7c-6.2,0.3-9.1-3.8-9.5-8.5c-0.3-2.6,0.1-5.2,1.2-7.5c1.6-3.3,5.1-5.2,8.7-4.7
		c3.4,0.3,6.3,2.7,7.1,6.1c0.3,1.5,0.5,3,0.7,4.5H80.5c-0.3,4.3,2,7.7,5.3,8.5c4.1,1,7.5-0.8,8.8-4.6C94.8,45.9,95.3,45.7,96.2,46z
		 M80.5,41.5H95c-0.1-4.6-2.9-7.9-6.8-7.9C83.8,33.6,80.7,36.8,80.5,41.5z"/>
	<path d="M99.2,46.1h1.4c0.1,2.1,1.4,4,3.3,4.9c2.4,1.1,5.2,1,7.6-0.2c1.3-0.6,2.1-1.9,2-3.3c0.1-1.4-0.8-2.6-2.1-3.1
		c-1.6-0.6-3.2-0.9-4.8-1.4c-1.7-0.5-3.3-1.1-4.8-1.8c-2.6-1.2-2.7-6.1,0.2-7.7c3-1.7,6.7-1.8,9.8-0.2c1.9,1,2.9,3.1,2.6,5.2h-1.2
		c0-0.1-0.1-0.1-0.1-0.2c-0.2-3.9-3.4-5.1-6.9-4.8c-1,0.1-2.1,0.4-3,0.9c-1.2,0.5-1.9,1.7-1.7,3c0,1.3,0.8,2.4,2,2.8
		c1.5,0.6,3.2,0.9,4.7,1.4c1.3,0.3,2.6,0.6,3.8,1c1.8,0.6,3,2.2,3.1,4.1c0.3,2.1-0.7,4.1-2.6,5c-3.3,1.9-8.8,1.4-11.3-1
		C99.9,49.6,99.2,47.9,99.2,46.1z"/>
	<path d="M133.1,38.6h-1.3c0-0.2-0.1-0.3-0.1-0.5c0-2.1-1.5-3.8-3.5-4.2c-1.8-0.5-3.8-0.4-5.6,0.3c-1.5,0.4-2.5,1.7-2.5,3.2
		c-0.1,1.5,1,2.8,2.4,3.2c2,0.6,4.1,1,6.1,1.6c0.7,0.2,1.3,0.4,1.9,0.6c2.6,0.9,4,3.8,3,6.4c-0.5,1.3-1.5,2.4-2.8,2.9
		c-2.9,1.3-6.1,1.3-9,0.1c-2.4-1-3.9-3.5-3.8-6.1h0.6h0.7c0.8,3.9,4.7,6.5,8.6,5.7c0.9-0.2,1.7-0.5,2.5-1c1.2-0.6,2-1.9,1.9-3.3
		c0.1-1.4-0.8-2.6-2.1-3.1c-1.6-0.6-3.2-0.9-4.8-1.4c-1.7-0.5-3.3-1-4.9-1.8c-2.5-1.2-2.7-6.1,0.2-7.6c3.1-1.8,6.8-1.8,9.9-0.1
		C132.3,34.5,133.3,36.6,133.1,38.6z"/>
	<path d="M45.9,52.5c-1.1,0.4-2.3-0.1-2.8-1.1c-1.6-2.4-3.4-4.8-5.2-7.2l-0.8-1c-2.1,2.8-4.1,5.4-6,8.2c-0.5,1-1.7,1.4-2.7,1.1
		l7.7-10.4L29,32.8c1.1-0.4,2.3,0,2.9,1c1.7,2.4,3.5,4.8,5.4,7.2c1.8-2.5,3.7-4.8,5.4-7.2c0.5-1,1.7-1.4,2.7-1l-2.8,3.7
		c-1.2,1.7-2.5,3.3-3.8,4.9c-0.4,0.4-0.4,1-0.1,1.4c0,0,0.1,0.1,0.1,0.1C41.1,46.1,43.5,49.2,45.9,52.5z"/>
	<path d="M78.8,32.7v1.4c-4-0.3-7.4,2.8-7.7,6.8c0,0.2,0,0.5,0,0.7c0,3.3,0,6.6,0,9.9c0,0.3,0,0.7,0,1.1h-1.4V32.7H71v4.1
		C72.7,33.8,75.4,32.7,78.8,32.7z"/>
	<path d="M10,42c0.2-1,0.3-2.1,0.6-3.1c1.7-6.2,8.8-8.7,13.6-4.9c2.8,2.2,3.5,5.4,3.4,9h-16c-0.3,6.4,4.3,10.2,10.2,8.2
		c1.9-0.7,3.4-2.3,3.9-4.3c0.3-1,0.8-1.2,1.8-0.9c-0.3,2.5-1.7,4.7-3.9,5.9c-3.6,2-8,1.4-10.9-1.4c-1.4-1.6-2.3-3.6-2.5-5.8
		c0-0.3-0.1-0.7-0.2-1C10,43.1,10,42.6,10,42z M11.7,41.6h14.5c-0.1-4.6-3-7.9-6.9-7.9C14.9,33.6,11.8,36.8,11.7,41.6L11.7,41.6z"/>
</g>
</svg>
