<?xml version="1.0" encoding="utf-8"?>
<!-- Generator: Adobe Illustrator 22.1.0, SVG Export Plug-In . SVG Version: 6.00 Build 0)  -->
<svg version="1.1" id="Layer_1" xmlns="http://www.w3.org/2000/svg" xmlns:xlink="http://www.w3.org/1999/xlink" x="0px" y="0px"
	 viewBox="0 0 147.5 147.5" style="enable-background:new 0 0 147.5 147.5;" xml:space="preserve">
<style type="text/css">
	.st0{fill:#F34F29;}
</style>
<path class="st0" d="M134,69.6L78.9,14.5c-3.2-3.2-8.3-3.2-11.5,0L55.9,26l14.5,14.5c3.4-1.1,7.2-0.4,9.9,2.3
	c2.7,2.7,3.5,6.6,2.3,10l14,14c3.4-1.2,7.3-0.4,10,2.3c3.8,3.8,3.8,9.9,0,13.7c-3.8,3.8-9.9,3.8-13.7,0c-2.8-2.8-3.5-7-2.1-10.5
	l-13-13l0,34.3c0.9,0.5,1.8,1.1,2.6,1.8c3.8,3.8,3.8,9.9,0,13.7c-3.8,3.8-9.9,3.8-13.7,0c-3.8-3.8-3.8-9.9,0-13.7
	c0.9-0.9,2-1.6,3.2-2.1V58.6c-1.2-0.5-2.2-1.2-3.2-2.1c-2.9-2.9-3.6-7.1-2.1-10.6L50.3,31.6L12.5,69.4c-3.2,3.2-3.2,8.3,0,11.5
	L67.6,136c3.2,3.2,8.3,3.2,11.5,0L134,81.1C137.2,78,137.2,72.8,134,69.6z"/>
</svg>
