<?xml version="1.0" encoding="utf-8"?>
<!-- Generator: Adobe Illustrator 22.1.0, SVG Export Plug-In . SVG Version: 6.00 Build 0)  -->
<svg version="1.1" id="Layer_1" xmlns="http://www.w3.org/2000/svg" xmlns:xlink="http://www.w3.org/1999/xlink" x="0px" y="0px"
	 viewBox="0 0 133 160" style="enable-background:new 0 0 133 160;" xml:space="preserve">
<style type="text/css">
	.st0{fill:#E44D26;}
	.st1{fill:#F16529;}
	.st2{fill:#EBEBEB;}
	.st3{fill:#FFFFFF;}
</style>
<path class="st0" d="M25,139.9L15,27.7H125l-10,112.2l-45,12.5L25,139.9z"/>
<path class="st1" d="M70,142.8l36.4-10.1l8.6-95.9H70V142.8z"/>
<path class="st2" d="M70,78.5H51.8l-1.3-14.1H70V50.6H35.5l0.3,3.7l3.4,37.9H70V78.5z M70,114.2L70,114.2l-15.4-4.1l-1-11H39.8
	l1.9,21.6l28.2,7.8l0.1,0V114.2z"/>
<path class="st3" d="M70,78.5v13.8h16.9l-1.6,17.8L70,114.2v14.3l28.2-7.8l0.2-2.3l3.2-36.2l0.3-3.7h-3.7H70z M70,50.6v13.8h33.2
	l0.3-3.1l0.6-7l0.3-3.7H70z"/>
</svg>
