<?xml version="1.0" encoding="utf-8"?>
<!-- Generator: Adobe Illustrator 22.1.0, SVG Export Plug-In . SVG Version: 6.00 Build 0)  -->
<svg version="1.1" id="Layer_1" xmlns="http://www.w3.org/2000/svg" xmlns:xlink="http://www.w3.org/1999/xlink" x="0px" y="0px"
	 viewBox="0 0 169 158" style="enable-background:new 0 0 169 158;" xml:space="preserve">
<style type="text/css">
	.st0{fill:#FAA625;}
</style>
<path class="st0" d="M69,86h15.4c-2.6-9-5.3-17.3-7.8-25.8C74,68.7,71.5,77,69,86z M145.1,18H23.9c-2.2,0-1.9,0.5-1.9,2.6V142
	c0,2.1-0.3,2,1.7,2h121.5c2,0,2.7,0.1,2.7-2V20.7C148,18.5,147.3,18,145.1,18z M98.3,113c-1.6,0-3.3-0.1-4.9,0
	c-1.2,0.1-1.6-0.4-1.9-1.4c-1.5-4.9-3.1-9.9-4.6-14.8c-0.3-1-0.7-1.4-1.8-1.3c-5.5,0.1-11,0.1-16.6,0c-1.2,0-1.7,0.3-2,1.4
	c-1.4,4.9-2.9,9.8-4.4,14.7c-0.3,1.1-0.8,1.4-1.9,1.4c-3.3-0.1-6.6,0-10.3,0c1-3,1.8-5.9,2.7-8.7c5.5-17.2,11-34.4,16.5-51.6
	c0.4-1.2,0.9-1.6,2.1-1.5c3.9,0.1,7.8,0,11.7,0c0.7,0,1.2,0,1.5,0.9c6.5,20.1,13,40.4,19.6,60.5c0,0.1,0,0.6,0,0.6L98.3,113
	L98.3,113z M119,113h-12V68h12V113z M112.7,61.9c-3.7,0-6.3-2.5-6.3-6.1c0-3.5,2.7-6.2,6.4-6.2c3.7,0,6.4,2.5,6.4,6.2
	C119.2,59.4,116.5,61.9,112.7,61.9z"/>
</svg>
