<?xml version="1.0" encoding="utf-8"?>
<!-- Generator: Adobe Illustrator 22.1.0, SVG Export Plug-In . SVG Version: 6.00 Build 0)  -->
<svg version="1.1" id="Layer_1" xmlns="http://www.w3.org/2000/svg" xmlns:xlink="http://www.w3.org/1999/xlink" x="0px" y="0px"
	 viewBox="0 0 139 148.6" style="enable-background:new 0 0 139 148.6;" xml:space="preserve">
<style type="text/css">
	.st0{fill:#336791;}
</style>
<path class="st0" d="M128.3,87c-0.4-2.9-2.9-4.8-5.8-5c-1,0-2.1,0.1-3.1,0.2c-1.2,0.2-2.5,0.4-3.7,0.6c-0.9,0.1-1.7,0.2-2.6,0.3V83
	c1.6-3,3.3-6,4.8-9.1c1.2-2.3,2.2-4.8,3.2-7.2c1.7-4,3.1-8.1,4.2-12.3c1.1-4,2-8.1,2.3-12.2c0.1-1.7,0.2-3.3,0.2-5
	c0-1.3-0.2-2.7-0.3-4c-0.2-1.5-0.6-3-1.2-4.3c-0.8-1.8-2.1-3.3-3.5-4.7c-1.1-1.1-2.3-2.2-3.5-3.2c-1.7-1.5-3.6-2.7-5.6-3.7
	c-2.3-1.2-4.6-2.1-7.1-2.7c-1.5-0.4-3-0.7-4.5-1c-0.5-0.1-1.1-0.3-1.6-0.3H90.1c-0.4,0-0.7,0.2-1.1,0.2c-2.5,0.3-4.9,0.7-7.2,1.5
	c-0.9,0.3-1.7,0.1-2.5,0c-0.6-0.1-1.3-0.2-1.9-0.3c-2.4-0.1-4.9-0.3-7.3-0.3c-2.3,0-4.7,0.4-6.9,1.1c-1.9,0.5-3.7,1.2-5.4,2.2
	c-0.7,0.4-1.3,0.3-2.1,0.1c-2.5-0.7-5.1-1.4-7.6-2c-1.6-0.4-3.2-0.5-4.9-0.7c-1.6-0.2-3.1-0.3-4.7-0.3c-1.5,0-3.1,0-4.6,0.1
	c-2.4,0.2-4.8,0.7-7.2,1.5c-2.6,0.9-5,2.2-7.1,3.9c-2.2,1.7-3.9,3.8-5.3,6.2c-1.5,2.5-2.5,5.2-3.1,8.1c-0.3,1.5-0.6,3.1-0.8,4.7
	c-0.1,0.5,0.7,1-0.3,1.5v6.8c1,0.5,0.2,0.9,0.3,1.4c0.1,1.1,0.3,2.2,0.4,3.3c0.3,1.7,0.6,3.4,1,5.1c0.5,2.4,1,4.7,1.5,7.1
	c0.4,1.7,0.8,3.4,1.3,5.1c0.7,2.6,1.4,5.2,2.2,7.8c0.8,2.4,1.6,4.7,2.5,7.1c1.2,3.3,2.6,6.4,4.3,9.4c1.5,2.6,3.2,5.1,5.4,7.1
	c1.5,1.3,3.2,2.3,5.1,2.9c1.5,0.4,3.1,0.4,4.6,0.1c1.8-0.4,3.4-1.1,4.8-2.3c0.2-0.1,0.3-0.2,0.5,0c0.7,0.9,1.7,1.6,2.7,2.1
	c2.8,1.4,5.8,1.9,8.9,2.1c0.7,0,1.5-0.1,2.2-0.1c1.5,0,2.9-0.3,4.3-0.7c0.7-0.2,1.4-0.5,2.2-0.7c0,0.8,0.1,1.6,0.1,2.3l0.1,4.2
	c0,0.6,0,1.3,0.1,1.9c0.2,1.6,0.3,3.3,0.5,4.9c0.1,1.1,0.3,2.2,0.5,3.3c0.5,2.2,1.2,4.3,2.2,6.4c0.9,2,2.2,3.8,3.9,5.2
	c2.2,1.8,4.8,2.6,7.6,2.8c1.2,0.1,2.4,0,3.5-0.2c1.8-0.3,3.6-0.7,5.4-1.3c3.6-1.1,6.7-3,9-6c1.3-1.7,2.4-3.6,3.1-5.6
	c0.6-1.7,1.1-3.4,1.5-5.2c0.3-1.4,0.5-2.8,0.7-4.2c0.1-0.9,0.2-1.9,0.3-2.8c0.1-1.5,0.3-3,0.4-4.6c0.1-1.1,0.1-2.1,0.1-3.2
	c0-0.3,0.1-0.6,0.1-1c0-0.3,0.2-0.4,0.5-0.4c1.1,0,2.1,0,3.2,0c1.2-0.1,2.4-0.1,3.6-0.3c1.7-0.3,3.3-0.6,5-1.1
	c1.9-0.5,3.7-1.4,5.4-2.5c2-1.2,3.8-2.6,5.3-4.4C128,90.8,128.6,89,128.3,87L128.3,87z M124.8,87.9c-0.1,0.9-0.5,1.7-1.1,2.4
	c-2.9,3.2-6.5,5.1-10.6,6c-1.6,0.4-3.2,0.5-4.8,0.7c-1.4,0.1-2.7,0.1-4.1,0.1c-1,0-2-0.3-3-0.4c-0.1,0.9-0.2,1.9-0.3,2.9l-0.5,3.7
	c-0.1,1.2-0.3,2.4-0.4,3.6s-0.3,2.3-0.5,3.4c-0.1,1.1-0.2,2.1-0.4,3.2c-0.2,1.6-0.5,3.3-0.8,4.9c-0.4,1.9-1,3.8-1.9,5.6
	c-1.2,2.1-2.8,3.8-4.9,5c-2.2,1.2-4.6,1.9-7,2.4c-1.7,0.4-3.5,0.4-5.2,0.3c-3-0.3-5.6-1.6-7.5-3.9c-1.8-2.2-3.1-4.8-3.5-7.7
	c-0.2-1.4-0.4-2.8-0.5-4.1c-0.1-1.5-0.2-3.1-0.3-4.6c-0.1-2-0.2-3.9-0.2-5.9c-0.1-2.4-0.1-4.8-0.1-7.2v-0.1
	c-1.2,0.7-2.4,1.5-3.7,2.2c-1.5,0.8-3.1,1.2-4.8,1.4c-1.3,0.1-2.7,0.2-4,0.1c-2.2-0.2-4.3-0.5-6.2-1.6c-0.8-0.4-1.6-1-2.1-1.6
	C45,97.1,45.6,95,47.6,94c1.3-0.7,2.8-1,4.3-1.3c1.3-0.3,2.5-0.6,3.8-1c1.2-0.4,2-1.4,2.8-2.4l1.2-1.6c-0.5-0.1-1-0.1-1.5-0.2
	c-1.4-0.1-2.8-0.5-4.1-1.1c-1.1-0.5-1.1-0.6-2,0.3c-1.4,1.5-2.7,3-4.1,4.5c-1,1.1-2,2.2-3,3.4c-1,1.1-1.9,2.3-2.9,3.3
	c-1.6,1.5-3.4,2.5-5.7,2.3c-1.4-0.1-2.8-0.6-4-1.4c-2.5-1.7-4.1-4.1-5.6-6.6c-1.9-3.2-3.4-6.6-4.7-10.2c-0.9-2.4-1.8-4.9-2.5-7.3
	c-0.8-2.7-1.6-5.4-2.3-8.1c-0.5-2-1-4.1-1.5-6.2c-0.5-2.4-1-4.7-1.5-7.1c-0.3-1.6-0.5-3.2-0.7-4.8c-0.3-2.2-0.4-4.4-0.3-6.5
	c0.1-2,0.4-3.9,0.7-5.9c0.4-2.7,1.3-5.2,2.6-7.6c0.8-1.5,1.8-2.8,2.9-4.1c1.8-2,4.1-3.5,6.6-4.6c1.7-0.8,3.6-1.2,5.4-1.6
	c2.8-0.5,5.6-0.5,8.4-0.5c1.2,0,2.4,0.2,3.7,0.4c2.6,0.3,5.2,0.8,7.8,1.5c1.9,0.5,3.7,1.1,5.5,1.7c0.2,0.1,0.5,0.1,0.6,0
	c2.5-1.6,5.2-2.7,8.1-3.3c1.1-0.2,2.2-0.3,3.4-0.4c1.4-0.1,2.7-0.2,4.1-0.1c1.6,0.1,3.3,0.3,4.9,0.6c0.8,0.1,1.6,0.4,2.4,0.5
	c0.4,0,0.8-0.2,1.2-0.3c2-0.5,4.1-1,6.2-1.4c1.5-0.3,3.1-0.4,4.7-0.5c1.7-0.1,3.5-0.2,5.2-0.1c2.2,0.1,4.4,0.4,6.6,0.9
	c2.7,0.6,5.2,1.5,7.7,2.8c1.8,0.9,3.6,2,5.1,3.4c1,0.9,2.1,1.7,3,2.7c1.1,1.2,2.3,2.4,3,4c0.5,1.2,0.9,2.4,1,3.6
	c0.1,1.6,0.3,3.2,0.3,4.8c0,1.5-0.2,3-0.4,4.6c-0.3,3.5-1.1,6.8-2,10.2c-0.8,2.8-1.6,5.5-2.6,8.2c-0.9,2.5-1.9,4.9-2.9,7.3
	c-0.8,1.8-1.6,3.6-2.5,5.3c-1.7,3.3-3.4,6.5-5.4,9.6c-0.3,0.5-0.7,1.1-1,1.6c0.9,0.6,1.9,0.8,2.9,0.9s1.9,0.2,2.9,0.1
	c1.5-0.1,3-0.3,4.6-0.5c1.5-0.2,3-0.6,4.5-0.5C123.8,85.3,125,86.5,124.8,87.9L124.8,87.9z M102.8,84.6c-0.7-0.8-1.3-1.7-2-2.5
	c-1-1.3-1.7-2.8-2.5-4.4c-0.7-1.4-1.5-2.8-2.3-4.2c-1.3-2.5-2.6-4.9-3.7-7.4c-1.5-3.2-2.6-6.4-3-9.9c-0.2-1.5-0.2-3,0.1-4.4
	c0.5-2.3,1.7-4.2,3.8-5.4c1.9-1.2,4-1.5,6.2-1.7c1.4-0.1,2.7,0,4.1,0v-0.2c-0.9-1.8-1.7-3.7-2.6-5.5c-1.3-2.5-3.1-4.8-5-6.9
	c-1.4-1.6-3-3-4.6-4.3c-1.7-1.3-3.4-2.4-5.3-3.3c-2.2-1.1-4.5-1.9-7-2.5c-2.3-0.5-4.7-0.8-7.1-0.9c-2,0-4.1,0.1-6.1,0.5
	c-3,0.7-5.7,1.9-8.1,3.9c-1.3,1.1-2.5,2.4-3.5,3.8c-1.2,1.6-2.2,3.4-3,5.3c-1.1,2.6-1.9,5.2-2.4,7.9c-0.3,1.4-0.5,2.7-0.7,4.1
	c-0.1,0.5-0.1,1-0.1,1.5c0.4-0.2,0.6-0.3,0.9-0.5l0.9-0.4c3-1.4,6.1-2.2,9.4-2.1c1.4,0,2.8,0.3,4,0.9c2.4,1.2,3.8,3.2,4.4,5.8
	c0.4,1.8,0.7,3.6,1,5.4c0.2,1.4,0.4,2.8,0.5,4.2c0,2.1-0.1,4.1-0.2,6.2c-0.1,1.8-0.5,3.5-1.1,5.1c-1.1,3-2.4,5.9-3.5,8.9
	c-0.4,1-0.7,2-1,3.1c0.6,0,1,0,1.5,0c0.2,0,0.4,0,0.5,0c1.3,0.3,2.5,0.9,3.5,2c1.3,1.4,1.9,3,2,4.8c0,1-0.1,2.1-0.1,3.1
	c0,4.8,0.1,9.6,0.1,14.4c0,0.8,0,1.6,0.1,2.3c0.1,1.6,0.2,3.3,0.4,4.9c0.1,1.2,0.3,2.3,0.5,3.5c0.3,1.6,1,3.1,1.8,4.5
	c0.7,1.2,1.7,2.2,2.9,2.9c2.1,1.2,4.4,1.3,6.7,0.8c1.5-0.3,3.1-0.8,4.6-1.3s2.8-1.3,3.9-2.4c1.1-1,1.8-2.3,2.3-3.6
	c1-2.7,1.3-5.5,1.7-8.2c0.2-1,0.3-2.1,0.4-3.1c0.2-1.2,0.3-2.4,0.5-3.6c0.1-0.9,0.2-1.8,0.3-2.7c0.2-1.3,0.3-2.5,0.5-3.8
	c0.1-1,0.2-2,0.3-2.9c0.1-1.3,0.3-2.5,0.4-3.8c0.1-1,0.1-1.9,0.2-2.9c0.3-1.7,1.1-3.2,2.6-4.1c0.6-0.4,1.4-0.7,2.1-1L102.8,84.6
	L102.8,84.6z M45.2,77.5c-0.8-1.8-1.2-3.7-1.4-5.6c-0.1-1.8,0.1-3.6,0.3-5.5c0.2-1.8,0.3-3.5,0.4-5.3c0.1-2.9-0.1-5.8-0.2-8.7
	c-0.1-1.7,0.1-3.5,0.3-5.2c0.1-1.6,0.3-3.1,0.6-4.7c0.5-2.6,1.2-5.1,2.1-7.6c0.9-2.3,1.9-4.6,3.3-6.7c1-1.4,2.1-2.7,3.2-4.1L53.5,24
	c-3.5-1.1-7.1-2-10.7-2.4c-1.7-0.2-3.5-0.3-5.2-0.4c-0.5,0-1.1,0-1.6,0.1c-1.3,0.1-2.7,0.2-4,0.4c-2.2,0.4-4.3,1.1-6.3,2.3
	c-1.8,1-3.2,2.4-4.5,4c-1.4,1.8-2.3,3.8-3,5.9c-0.8,2.5-1.2,5.1-1.3,7.7c-0.1,2.3-0.1,4.6,0.3,6.9c0.3,1.7,0.5,3.4,0.8,5.1
	c0.4,2.3,0.9,4.6,1.5,6.9c0.8,3.3,1.6,6.6,2.5,9.8c0.9,3.1,1.9,6.2,3,9.2c0.9,2.5,1.9,4.9,3,7.3c0.7,1.6,1.6,3.1,2.5,4.5
	c1,1.6,2,3,3.5,4.2c1.9,1.4,3.3,1.6,5.2,0.1c0.8-0.7,1.5-1.5,2.2-2.3c1.1-1.2,2.2-2.5,3.3-3.8c1.4-1.6,2.8-3.2,4.3-4.8
	c0.3-0.3,0.6-0.7,0.9-1l-0.5-0.4C47.6,81.8,46.2,79.8,45.2,77.5z M98.9,30c1.2,1.4,2.3,2.8,3.3,4.2c2,2.8,3.6,5.8,4.8,9.1
	c0.5,1.4,0.9,2.9,0.8,4.4c-0.1,1.1-0.1,2.2-0.2,3.3c-0.1,0.9-0.2,1.8-0.3,2.7c-0.2,1.4-0.4,2.8-0.5,4.1s0,2.6,0.1,4
	c0.1,1.3,0.3,2.7,0.4,4c0.1,1.5,0.3,3,0.4,4.6c0,1.2-0.1,2.5-0.2,3.8c-0.1,1.5-0.5,3-1.1,4.4c-0.4,1-0.9,1.9-1.3,2.9l0.2,0.2
	l0.3,0.2l0.3-0.5c2.3-3.7,4.4-7.5,6.2-11.5c1.2-2.6,2.2-5.2,3.3-7.8c1.6-4.1,2.9-8.2,3.9-12.5c0.4-1.9,0.8-3.9,1.1-5.8
	c0.2-1.5,0.4-3.1,0.5-4.6c0-1.6,0-3.3-0.2-4.9c-0.1-1.2-0.4-2.5-1.2-3.5c-1.2-1.6-2.6-3.1-4.2-4.3c-1.4-1-2.8-2.1-4.2-2.9
	c-2.3-1.4-4.9-2.3-7.5-2.9s-5.2-0.9-7.8-0.9c-1.6,0-3.1,0.1-4.7,0.3c-1.4,0.1-2.8,0.4-4.2,0.5c1.5,0.9,3,1.6,4.4,2.5
	C94,25,96.6,27.3,98.9,30L98.9,30z M60.3,82.7c1-3.1,2.3-6,3.5-9c1-2.4,1.6-4.9,1.8-7.5c0.1-1.3,0.1-2.6,0-3.9
	c-0.1-1.4-0.2-2.8-0.4-4.3c-0.3-1.8-0.6-3.6-1-5.4c-0.5-1.9-1.6-3.2-3.6-3.7c-1.2-0.3-2.4-0.3-3.7-0.1c-3,0.5-5.8,1.6-8.3,3.2
	c-0.5,0.3-0.8,0.6-0.7,1.3c0.2,1.6,0.2,3.2,0.2,4.7c0,2.2-0.1,4.5-0.2,6.7c0,0.7-0.1,1.5-0.2,2.2c-0.1,1.1-0.4,2.2-0.3,3.3
	c0,1.1,0.1,2.3,0.4,3.4c0.9,3.5,2.7,6.4,5.8,8.4c1.9,1.2,4,1.9,6.2,2C60,83.7,60.1,83.2,60.3,82.7z M56.7,52.6
	c-0.4-0.8-0.2-1.5,0.8-1.9c0.2-0.1,0.5-0.2,0.7-0.2c0.3,0,0.7,0,1,0c1.2,0,2.3,0.2,3.3,0.9c0.6,0.5,0.8,1.1,0.4,1.8
	c-0.6,0.9-1.5,1.4-2.5,1.5C58.6,54.9,57.4,54.1,56.7,52.6z M103.8,52.3c0.1-1.1,0.2-2.3,0.4-3.4c0.1-0.5-0.2-0.6-0.6-0.6
	c-1.2,0-2.4-0.1-3.6-0.1c-1.3,0-2.7,0.2-3.9,0.7c-1.4,0.6-2.4,1.5-2.9,3c-0.3,1.1-0.4,2.2-0.3,3.4c0.2,1.8,0.6,3.5,1.2,5.2
	c0.8,2.2,1.7,4.4,2.8,6.6c1.4,2.9,3,5.7,4.5,8.5c0.4,0.8,0.7,1.5,1.2,2.4c0.9-1.9,1.3-3.7,1.4-5.6c0-1.6-0.1-3.2-0.2-4.8
	c-0.1-1-0.2-2-0.3-2.9c-0.1-1.4-0.3-2.7-0.4-4.1c0-1.4,0.1-2.8,0.2-4.2C103.4,55,103.6,53.6,103.8,52.3L103.8,52.3z M101.1,51.2
	c-0.4,1.2-1.4,1.9-2.6,2.1c-1.1,0.2-2.1-0.2-2.9-1.1c-0.5-0.7-0.3-1.4,0.5-1.9c0.9-0.5,1.9-0.6,3.1-0.7c0.3,0.1,0.8,0.1,1.3,0.2
	C101.1,50,101.3,50.6,101.1,51.2z M65.6,88.9c-0.7-0.5-1.5-0.6-2.1,0c-0.8,0.7-1.5,1.6-2.1,2.4c-0.8,1-1.5,1.9-2.5,2.7
	c-1.5,1.1-3.2,1.5-4.9,1.9c-1.4,0.3-2.8,0.6-4.1,1v0.2c0.4,0.2,0.8,0.4,1.2,0.6c2.1,0.7,4.2,1,6.5,0.8c1.6-0.1,3.1-0.5,4.6-1.2
	c2-0.9,3.5-2.4,4.8-4.2c0.2-0.3,0.3-0.7,0.3-1.1C67.3,90.7,66.6,89.7,65.6,88.9z M117.4,89.4c-1.7,0.2-3.4,0.4-5.1,0.5
	c-0.8,0-1.6-0.1-2.5-0.2c-1.4-0.1-2.7-0.4-3.9-1.2c-0.7-0.4-1.2-0.5-2-0.2c-1,0.3-1.9,0.9-2.1,2c-0.2,0.8-0.2,1.5-0.3,2.3
	c0,0.1,0.2,0.4,0.3,0.4c0.8,0.2,1.6,0.5,2.4,0.5c1,0.1,2,0.1,3,0c1.1-0.1,2.2-0.1,3.2-0.3c2.5-0.4,4.9-1.1,7.1-2.5
	c0.8-0.5,1.6-1,2.3-1.6l-0.1-0.1C119,89.2,118.2,89.3,117.4,89.4z"/>
</svg>
