<?xml version="1.0" encoding="utf-8"?>
<!-- Generator: Adobe Illustrator 22.1.0, SVG Export Plug-In . SVG Version: 6.00 Build 0)  -->
<svg version="1.1" id="Layer_1" xmlns="http://www.w3.org/2000/svg" xmlns:xlink="http://www.w3.org/1999/xlink" x="0px" y="0px"
	 viewBox="0 0 152.7 140" style="enable-background:new 0 0 152.7 140;" xml:space="preserve">
<style type="text/css">
	.st0{fill:#61DAFB;}
</style>
<g>
	<circle class="st0" cx="77" cy="70" r="11.4"/>
	<path class="st0" d="M120.3,51.2c-2.2-0.8-4.5-1.6-6.9-2.3c0.6-2.4,1.1-4.8,1.5-7.1c2.1-13.2-0.2-22.5-6.6-26.1
		c-1.9-1.1-4-1.6-6.4-1.6c-7,0-15.9,5.2-24.9,13.9c-9-8.7-17.9-13.9-24.9-13.9c-2.4,0-4.5,0.5-6.4,1.6c-6.4,3.7-8.7,13-6.6,26.1
		c0.4,2.3,0.9,4.7,1.5,7.1c-2.4,0.7-4.7,1.4-6.9,2.3C21.2,56,14.4,62.6,14.4,70s6.9,14,19.3,18.8c2.2,0.8,4.5,1.6,6.9,2.3
		c-0.6,2.4-1.1,4.8-1.5,7.1c-2.1,13.2,0.2,22.5,6.6,26.1c1.9,1.1,4,1.6,6.4,1.6c7.1,0,16-5.2,24.9-13.9c9,8.7,17.9,13.9,24.9,13.9
		c2.4,0,4.5-0.5,6.4-1.6c6.4-3.7,8.7-13,6.6-26.1c-0.4-2.3-0.9-4.7-1.5-7.1c2.4-0.7,4.7-1.4,6.9-2.3c12.5-4.8,19.3-11.4,19.3-18.8
		S132.8,56,120.3,51.2z M105.5,20.7c4.1,2.4,5.5,9.8,3.8,20.3c-0.3,2.1-0.8,4.3-1.4,6.6c-5.2-1.2-10.7-2-16.5-2.5
		C88,40.3,84.5,36,81,32.1c7.4-7.3,14.9-12.3,21-12.3C103.3,19.8,104.5,20.1,105.5,20.7z M94.3,80c-1.8,3.2-3.9,6.4-6.1,9.6
		C84.5,89.9,80.8,90,77,90c-3.9,0-7.6-0.1-11.2-0.4c-2.2-3.2-4.2-6.4-6-9.6c-1.9-3.3-3.7-6.7-5.3-10c1.6-3.3,3.4-6.7,5.3-10
		c1.8-3.2,3.9-6.4,6.1-9.6c3.7-0.3,7.4-0.4,11.2-0.4c3.9,0,7.6,0.1,11.2,0.4c2.2,3.2,4.2,6.4,6,9.6c1.9,3.3,3.7,6.7,5.3,10
		C97.9,73.3,96.2,76.6,94.3,80z M102.6,76.7c1.5,3.5,2.7,6.9,3.8,10.3c-3.4,0.8-7,1.4-10.8,1.9c1.2-1.9,2.5-3.9,3.6-6
		C100.4,80.8,101.5,78.7,102.6,76.7z M77,103.8c-2.4-2.6-4.7-5.4-6.9-8.3c2.3,0.1,4.6,0.2,6.9,0.2s4.6-0.1,6.9-0.2
		C81.7,98.4,79.4,101.2,77,103.8z M58.4,88.8c-3.8-0.5-7.4-1.1-10.8-1.9c1.1-3.3,2.3-6.8,3.8-10.3c1.1,2,2.2,4.1,3.4,6.1
		C56,84.9,57.2,86.8,58.4,88.8z M51.4,63.3c-1.5-3.5-2.7-6.9-3.8-10.3c3.4-0.8,7-1.4,10.8-1.9c-1.2,1.9-2.5,3.9-3.6,6
		C53.6,59.2,52.5,61.3,51.4,63.3z M77,36.2c2.4,2.6,4.7,5.4,6.9,8.3c-2.3-0.1-4.6-0.2-6.9-0.2c-2.3,0-4.6,0.1-6.9,0.2
		C72.3,41.6,74.6,38.8,77,36.2z M99.2,57.2l-3.6-6c3.8,0.5,7.4,1.1,10.8,1.9c-1.1,3.3-2.3,6.8-3.8,10.3
		C101.5,61.3,100.4,59.2,99.2,57.2z M44.7,41c-1.7-10.5-0.3-17.9,3.8-20.3c1-0.6,2.2-0.9,3.5-0.9c6,0,13.5,4.9,21,12.3
		c-3.5,3.8-7,8.2-10.4,13c-5.8,0.5-11.3,1.4-16.5,2.5C45.5,45.3,45.1,43.1,44.7,41z M20,70c0-4.7,5.7-9.7,15.7-13.4
		c2-0.8,4.2-1.5,6.4-2.1c1.6,5,3.6,10.3,6,15.6c-2.4,5.3-4.5,10.5-6,15.5C28.3,81.6,20,75.6,20,70z M48.5,119.3
		c-4.1-2.4-5.5-9.8-3.8-20.3c0.3-2.1,0.8-4.3,1.4-6.6c5.2,1.2,10.7,2,16.5,2.5c3.4,4.8,6.9,9.1,10.4,13c-7.4,7.3-14.9,12.3-21,12.3
		C50.7,120.2,49.5,119.9,48.5,119.3z M109.3,99c1.7,10.5,0.3,17.9-3.8,20.3c-1,0.6-2.2,0.9-3.5,0.9c-6,0-13.5-4.9-21-12.3
		c3.5-3.8,7-8.2,10.4-13c5.8-0.5,11.3-1.4,16.5-2.5C108.5,94.7,108.9,96.9,109.3,99z M118.3,83.4c-2,0.8-4.2,1.5-6.4,2.1
		c-1.6-5-3.6-10.3-6-15.6c2.4-5.3,4.5-10.5,6-15.5c13.8,4,22.1,10,22.1,15.6C134,74.7,128.2,79.7,118.3,83.4z"/>
</g>
</svg>
