<?xml version="1.0" encoding="utf-8"?>
<!-- Generator: Adobe Illustrator 22.1.0, SVG Export Plug-In . SVG Version: 6.00 Build 0)  -->
<svg version="1.1" id="Layer_1" xmlns="http://www.w3.org/2000/svg" xmlns:xlink="http://www.w3.org/1999/xlink" x="0px" y="0px"
	 viewBox="0 0 150 128" style="enable-background:new 0 0 150 128;" xml:space="preserve">
<style type="text/css">
	.st0{fill:url(#SVGID_1_);}
	.st1{fill:url(#SVGID_2_);}
	.st2{fill:url(#SVGID_3_);}
	.st3{fill:url(#SVGID_4_);}
	.st4{fill:url(#SVGID_5_);}
	.st5{fill:url(#SVGID_6_);}
	.st6{fill:url(#SVGID_7_);}
	.st7{fill:url(#SVGID_8_);}
	.st8{fill:#FFFFFF;}
	.st9{fill:url(#SVGID_9_);}
	.st10{fill:url(#SVGID_10_);}
	.st11{fill:url(#SVGID_11_);}
	.st12{fill:url(#SVGID_12_);}
	.st13{fill:#9E1209;}
	.st14{fill:url(#SVGID_13_);}
	.st15{fill:url(#SVGID_14_);}
	.st16{fill:url(#SVGID_15_);}
	.st17{fill:url(#SVGID_16_);}
</style>
<linearGradient id="SVGID_1_" gradientUnits="userSpaceOnUse" x1="168.0793" y1="-1590.0497" x2="142.6813" y2="-1634.8917" gradientTransform="matrix(1 0 0 1 -47.5 1725)">
	<stop  offset="0" style="stop-color:#FB7655"/>
	<stop  offset="0" style="stop-color:#FB7655"/>
	<stop  offset="0.41" style="stop-color:#E42B1E"/>
	<stop  offset="0.99" style="stop-color:#990000"/>
	<stop  offset="1" style="stop-color:#990000"/>
</linearGradient>
<path class="st0" d="M108.1,83.2L39.3,124l89-6l6.9-89.7L108.1,83.2z"/>
<linearGradient id="SVGID_2_" gradientUnits="userSpaceOnUse" x1="180.7312" y1="-1627.7202" x2="147.9982" y2="-1649.6853" gradientTransform="matrix(1 0 0 1 -47.5 1725)">
	<stop  offset="0" style="stop-color:#871101"/>
	<stop  offset="0" style="stop-color:#871101"/>
	<stop  offset="0.99" style="stop-color:#911209"/>
	<stop  offset="1" style="stop-color:#911209"/>
</linearGradient>
<path class="st1" d="M128.5,117.9l-7.6-52.8L100,92.6L128.5,117.9z"/>
<linearGradient id="SVGID_3_" gradientUnits="userSpaceOnUse" x1="154.5428" y1="-1588.6912" x2="121.8108" y2="-1610.6562" gradientTransform="matrix(1 0 0 1 -47.5 1725)">
	<stop  offset="0" style="stop-color:#871101"/>
	<stop  offset="0" style="stop-color:#871101"/>
	<stop  offset="0.99" style="stop-color:#911209"/>
	<stop  offset="1" style="stop-color:#911209"/>
</linearGradient>
<path class="st2" d="M128.6,117.9l-56-4.4l-32.9,10.4L128.6,117.9z"/>
<linearGradient id="SVGID_4_" gradientUnits="userSpaceOnUse" x1="85.8165" y1="-1643.6219" x2="90.8905" y2="-1610.6439" gradientTransform="matrix(1 0 0 1 -47.5 1725)">
	<stop  offset="0" style="stop-color:#FFFFFF"/>
	<stop  offset="0" style="stop-color:#FFFFFF"/>
	<stop  offset="0.23" style="stop-color:#E57252"/>
	<stop  offset="0.46" style="stop-color:#DE3B20"/>
	<stop  offset="0.99" style="stop-color:#A60003"/>
	<stop  offset="1" style="stop-color:#A60003"/>
</linearGradient>
<path class="st3" d="M39.7,123.9l14-45.9l-30.8,6.6L39.7,123.9z"/>
<linearGradient id="SVGID_5_" gradientUnits="userSpaceOnUse" x1="120.7185" y1="-1674.4131" x2="122.5885" y2="-1640.7571" gradientTransform="matrix(1 0 0 1 -47.5 1725)">
	<stop  offset="0" style="stop-color:#FFFFFF"/>
	<stop  offset="0" style="stop-color:#FFFFFF"/>
	<stop  offset="0.23" style="stop-color:#E4714E"/>
	<stop  offset="0.56" style="stop-color:#BE1A0D"/>
	<stop  offset="0.99" style="stop-color:#A80D00"/>
	<stop  offset="1" style="stop-color:#A80D00"/>
</linearGradient>
<path class="st4" d="M100,92.8L87.1,42.3L50.2,76.9L100,92.8z"/>
<linearGradient id="SVGID_6_" gradientUnits="userSpaceOnUse" x1="151.6909" y1="-1705.5229" x2="157.2889" y2="-1681.4009" gradientTransform="matrix(1 0 0 1 -47.5 1725)">
	<stop  offset="0" style="stop-color:#FFFFFF"/>
	<stop  offset="0" style="stop-color:#FFFFFF"/>
	<stop  offset="0.18" style="stop-color:#E46342"/>
	<stop  offset="0.4" style="stop-color:#C82410"/>
	<stop  offset="0.99" style="stop-color:#A80D00"/>
	<stop  offset="1" style="stop-color:#A80D00"/>
</linearGradient>
<path class="st5" d="M132.3,43L97.4,14.6L87.7,46L132.3,43z"/>
<linearGradient id="SVGID_7_" gradientUnits="userSpaceOnUse" x1="134.6002" y1="-1714.0177" x2="158.7192" y2="-1726.0765" gradientTransform="matrix(1 0 0 1 -47.5 1725)">
	<stop  offset="0" style="stop-color:#FFFFFF"/>
	<stop  offset="0" style="stop-color:#FFFFFF"/>
	<stop  offset="0.54" style="stop-color:#C81F11"/>
	<stop  offset="0.99" style="stop-color:#BF0905"/>
	<stop  offset="1" style="stop-color:#BF0905"/>
</linearGradient>
<path class="st6" d="M116,4.4L95.5,15.8L82.6,4.3L116,4.4z"/>
<linearGradient id="SVGID_8_" gradientUnits="userSpaceOnUse" x1="64.6732" y1="-1652.028" x2="66.6592" y2="-1632.153" gradientTransform="matrix(1 0 0 1 -47.5 1725)">
	<stop  offset="0" style="stop-color:#FFFFFF"/>
	<stop  offset="0" style="stop-color:#FFFFFF"/>
	<stop  offset="0.31" style="stop-color:#DE4024"/>
	<stop  offset="0.99" style="stop-color:#BF190B"/>
	<stop  offset="1" style="stop-color:#BF190B"/>
</linearGradient>
<path class="st7" d="M14.8,100l8.6-15.7l-6.9-18.7L14.8,100z"/>
<path class="st8" d="M16,65.1L23,85l30.4-6.8L88,45.9l9.8-31.1L82.4,4l-26.2,9.8c-8.3,7.7-24.3,22.9-24.8,23.1
	C30.8,37.2,20.8,56.1,16,65.1z"/>
<linearGradient id="SVGID_9_" gradientUnits="userSpaceOnUse" x1="51.0268" y1="-1626.7803" x2="144.3458" y2="-1722.7383" gradientTransform="matrix(1 0 0 1 -47.5 1725)">
	<stop  offset="0" style="stop-color:#BD0012"/>
	<stop  offset="0" style="stop-color:#BD0012"/>
	<stop  offset="7.000000e-02" style="stop-color:#FFFFFF"/>
	<stop  offset="0.17" style="stop-color:#FFFFFF"/>
	<stop  offset="0.27" style="stop-color:#C82F1C"/>
	<stop  offset="0.33" style="stop-color:#820C01"/>
	<stop  offset="0.46" style="stop-color:#A31601"/>
	<stop  offset="0.72" style="stop-color:#B31301"/>
	<stop  offset="0.99" style="stop-color:#E82609"/>
	<stop  offset="1" style="stop-color:#E82609"/>
</linearGradient>
<path class="st9" d="M40.5,29.5C58.4,11.8,81.5,1.3,90.3,10.2c8.8,8.9-0.5,30.6-18.4,48.3S31.2,87.4,22.4,78.4
	C13.5,69.5,22.6,47.2,40.5,29.5z"/>
<linearGradient id="SVGID_10_" gradientUnits="userSpaceOnUse" x1="122.5069" y1="-1617.1018" x2="94.3979" y2="-1624.0388" gradientTransform="matrix(1 0 0 1 -47.5 1725)">
	<stop  offset="0" style="stop-color:#8C0C01"/>
	<stop  offset="0" style="stop-color:#8C0C01"/>
	<stop  offset="0.54" style="stop-color:#990C00"/>
	<stop  offset="0.99" style="stop-color:#A80D0E"/>
	<stop  offset="1" style="stop-color:#A80D0E"/>
</linearGradient>
<path class="st10" d="M39.7,123.9l13.9-46l46.1,14.8C83.1,108.4,64.5,121.6,39.7,123.9z"/>
<linearGradient id="SVGID_11_" gradientUnits="userSpaceOnUse" x1="170.7857" y1="-1650.8378" x2="145.8147" y2="-1673.2179" gradientTransform="matrix(1 0 0 1 -47.5 1725)">
	<stop  offset="0" style="stop-color:#7E110B"/>
	<stop  offset="0" style="stop-color:#7E110B"/>
	<stop  offset="0.99" style="stop-color:#9E0C00"/>
	<stop  offset="1" style="stop-color:#9E0C00"/>
</linearGradient>
<path class="st11" d="M88.1,45.8l11.8,46.9c13.9-14.7,26.4-30.4,32.6-49.9C132.5,42.9,88.1,45.8,88.1,45.8z"/>
<linearGradient id="SVGID_12_" gradientUnits="userSpaceOnUse" x1="179.9581" y1="-1691.9" x2="167.5201" y2="-1705.1981" gradientTransform="matrix(1 0 0 1 -47.5 1725)">
	<stop  offset="0" style="stop-color:#79130D"/>
	<stop  offset="0" style="stop-color:#79130D"/>
	<stop  offset="0.99" style="stop-color:#9E120B"/>
	<stop  offset="1" style="stop-color:#9E120B"/>
</linearGradient>
<path class="st12" d="M132.3,43.1c4.7-14.3,5.8-34.8-16.5-38.6L97.5,14.6C97.5,14.6,132.3,43.1,132.3,43.1z"/>
<path class="st13" d="M14.8,99.8c0.7,23.6,17.7,24,24.9,24.2L23,84.9C23,84.9,14.8,99.8,14.8,99.8z"/>
<radialGradient id="SVGID_13_" cx="149.703" cy="-1672.7891" r="30.601" gradientTransform="matrix(1 0 0 1 -47.5 1725)" gradientUnits="userSpaceOnUse">
	<stop  offset="0" style="stop-color:#A80D00"/>
	<stop  offset="0" style="stop-color:#A80D00"/>
	<stop  offset="0.99" style="stop-color:#7E0E08"/>
	<stop  offset="1" style="stop-color:#7E0E08"/>
</radialGradient>
<path class="st14" d="M88.1,45.9c10.7,6.6,32.3,19.8,32.7,20c0.7,0.4,9.3-14.5,11.3-23C132.1,43,88.1,45.9,88.1,45.9z"/>
<radialGradient id="SVGID_14_" cx="107.325" cy="-1632.4651" r="40.679" gradientTransform="matrix(1 0 0 1 -47.5 1725)" gradientUnits="userSpaceOnUse">
	<stop  offset="0" style="stop-color:#A30C00"/>
	<stop  offset="0" style="stop-color:#A30C00"/>
	<stop  offset="0.99" style="stop-color:#800E08"/>
	<stop  offset="1" style="stop-color:#800E08"/>
</radialGradient>
<path class="st15" d="M53.6,77.9l18.6,35.8c11-6,19.6-13.2,27.5-21L53.6,77.9z"/>
<linearGradient id="SVGID_15_" gradientUnits="userSpaceOnUse" x1="78.5094" y1="-1601.1151" x2="68.3734" y2="-1635.5062" gradientTransform="matrix(1 0 0 1 -47.5 1725)">
	<stop  offset="0" style="stop-color:#8B2114"/>
	<stop  offset="0" style="stop-color:#8B2114"/>
	<stop  offset="0.43" style="stop-color:#9E100A"/>
	<stop  offset="0.99" style="stop-color:#B3100C"/>
	<stop  offset="1" style="stop-color:#B3100C"/>
</linearGradient>
<path class="st16" d="M22.9,84.9l-2.6,31.3c5,6.8,11.8,7.4,19,6.8C34.1,110.2,23.7,84.4,22.9,84.9z"/>
<linearGradient id="SVGID_16_" gradientUnits="userSpaceOnUse" x1="156.2726" y1="-1715.0771" x2="178.9966" y2="-1705.0461" gradientTransform="matrix(1 0 0 1 -47.5 1725)">
	<stop  offset="0" style="stop-color:#B31000"/>
	<stop  offset="0" style="stop-color:#B31000"/>
	<stop  offset="0.44" style="stop-color:#910F08"/>
	<stop  offset="0.99" style="stop-color:#791C12"/>
	<stop  offset="1" style="stop-color:#791C12"/>
</linearGradient>
<path class="st17" d="M97.4,14.7l36.9,5.2c-2-8.3-8-13.7-18.3-15.4L97.4,14.7z"/>
</svg>
